<?xml version="1.0" encoding="UTF-8"?>
<!DOCTYPE svg PUBLIC "-//W3C//DTD SVG 1.1//EN" "http://www.w3.org/Graphics/SVG/1.1/DTD/svg11.dtd">
<!-- Creator: CorelDRAW -->
<svg xmlns="http://www.w3.org/2000/svg" xml:space="preserve" width="160mm" height="31mm" version="1.1" shape-rendering="geometricPrecision" text-rendering="geometricPrecision" image-rendering="optimizeQuality" fill-rule="evenodd" clip-rule="evenodd"
viewBox="0 0 16000 3100"
 xmlns:xlink="http://www.w3.org/1999/xlink"
 xmlns:xodm="http://www.corel.com/coreldraw/odm/2003">
 <g id="Слой_x0020_1">
  <metadata id="CorelCorpID_0Corel-Layer"/>
  <path id="_1" fill="#FEFEFE" fill-rule="nonzero" d="M453.49 1959.11l872.01 0 0 274.3 -1178.07 0 0 -1905.67 306.06 0 0 1631.37zm1793.07 -918.19c-102.01,0 -189.59,31.28 -262.75,93.83 -73.14,62.57 -121.26,146.79 -144.36,252.65l770.92 0c0,-53.89 -10.1,-102.49 -30.31,-145.8 -20.2,-43.32 -46.67,-79.89 -79.4,-109.73 -32.72,-29.84 -71.22,-52.45 -115.5,-67.85 -44.28,-15.4 -90.47,-23.1 -138.6,-23.1zm669.87 392.69c0,38.49 -2.88,75.07 -8.66,109.71 -5.76,34.65 -10.57,61.6 -14.43,80.85l-1056.79 0c21.18,117.42 72.67,208.86 154.48,274.3 81.82,65.45 184.32,98.17 307.5,98.17 82.78,0 157.38,-14.91 223.79,-44.75 66.4,-29.84 129.45,-70.74 189.12,-122.71l144.36 207.89c-75.07,71.23 -159.77,127.05 -254.09,167.46 -94.32,40.44 -198.26,60.64 -311.84,60.64 -109.7,0 -211.24,-18.76 -304.62,-56.3 -93.35,-37.53 -173.71,-89.51 -241.09,-155.92 -67.37,-66.41 -120.31,-144.85 -158.8,-235.33 -38.5,-90.47 -57.75,-187.67 -57.75,-291.62 0,-103.95 18.76,-201.15 56.3,-291.62 37.53,-90.48 89.5,-168.92 155.92,-235.33 66.41,-66.41 143.88,-118.86 232.44,-157.36 88.55,-38.5 184.78,-57.75 288.73,-57.75 94.32,0 181.42,16.37 261.32,49.09 79.88,32.72 149.18,77.95 207.88,135.7 58.72,57.75 104.44,126.57 137.16,206.46 32.72,79.88 49.07,166.02 49.07,258.42zm2743.03 799.8l-306.06 0 0 -871.99 -958.62 0 0 871.99 -306.06 0 0 -1905.67 306.06 0 0 759.38 958.62 0 0 -759.38 306.06 0 0 1905.67zm5913.38 -1937.43c140.53,0 263.73,32.23 369.59,96.73 105.88,64.48 187.68,145.8 245.43,243.97l-213.67 164.59c-50.05,-73.15 -108.76,-129.94 -176.12,-170.35 -67.38,-40.44 -142.45,-60.64 -225.23,-60.64 -76.99,0 -144.37,18.76 -202.12,56.3 -57.75,37.53 -86.61,95.76 -86.61,174.69 0,36.57 6.73,67.85 20.2,93.83 13.47,26 31.77,49.1 54.87,69.3 23.1,20.21 51.01,38.99 83.73,56.31 32.73,17.32 68.33,34.65 106.83,51.97l213.67 98.17c71.23,32.72 135.23,67.37 192.02,103.94 56.78,36.57 104.91,76.52 144.36,119.83 39.47,43.31 69.31,90.96 89.51,142.92 20.21,51.97 30.31,110.69 30.31,176.14 0,84.69 -16.35,161.2 -49.07,229.55 -32.72,68.34 -77.48,126.08 -134.26,173.24 -56.79,47.16 -124.17,83.74 -202.12,109.72 -77.97,26 -162.19,38.98 -252.65,38.98 -159.78,0 -301.26,-37.05 -424.44,-111.17 -123.2,-74.1 -221.38,-174.68 -294.52,-301.72l216.55 -164.58c26.94,40.42 57.26,78.92 90.95,115.49 33.69,36.57 70.75,68.81 111.16,96.72 40.44,27.91 85.19,50.06 134.27,66.41 49.09,16.37 103.47,24.54 163.14,24.54 98.16,0 177.57,-23.57 238.21,-70.73 60.63,-47.16 90.94,-112.13 90.94,-194.9 0,-36.58 -6.72,-68.81 -20.2,-96.72 -13.47,-27.91 -32.72,-52.47 -57.75,-73.63 -25.03,-21.19 -54.38,-40.91 -88.07,-59.2 -33.68,-18.28 -71.69,-37.06 -114.04,-56.31l-210.79 -98.16c-61.58,-28.88 -119.34,-59.67 -173.24,-92.39 -53.89,-32.73 -101.05,-70.26 -141.48,-112.61 -40.42,-42.35 -72.19,-90 -95.29,-142.94 -23.1,-52.92 -34.64,-113.08 -34.64,-180.46 0,-78.91 15.88,-150.14 47.64,-213.67 31.75,-63.51 75.07,-117.89 129.94,-163.14 54.85,-45.23 118.37,-79.88 190.56,-103.93 72.19,-24.06 149.66,-36.09 232.43,-36.09zm1345.52 303.16l0 626.58 384.03 0c109.73,0 193.46,-28.88 251.21,-86.63 57.73,-57.75 86.61,-132.82 86.61,-225.21 0,-92.41 -28.88,-167.95 -86.61,-226.67 -57.75,-58.7 -141.48,-88.07 -251.21,-88.07l-384.03 0zm389.81 -271.4c96.24,0 184.31,13.94 264.19,41.87 79.88,27.91 148.22,67.85 205.01,119.82 56.79,51.98 100.58,113.58 131.37,184.78 30.8,71.23 46.21,150.16 46.21,236.77 0,86.63 -15.41,165.55 -46.21,236.77 -30.79,71.22 -74.58,132.82 -131.37,184.8 -56.79,51.97 -125.13,92.39 -205.01,121.26 -79.88,28.88 -167.95,43.32 -264.19,43.32l-389.81 0 0 736.28 -306.06 0 0 -1905.67 695.87 0zm1703.55 534.17l-317.61 791.13 632.34 0 -314.73 -791.13zm427.34 1053.88l-857.55 0 -135.72 317.62 -326.26 0 840.21 -1937.43 103.95 0 840.23 1937.43 -329.16 0 -135.7 -317.62zm-8866.21 115.51c50.53,0 97.69,-8.19 142.44,-24.54 44.27,-16.37 83.73,-39.47 117.42,-69.31 33.69,-29.83 60.64,-65.45 79.89,-106.83 19.25,-41.38 28.87,-86.13 28.87,-134.26l0 -26 -365.74 0c-80.85,0 -143.4,14.44 -186.71,43.32 -43.79,28.87 -65.45,72.19 -65.45,129.94 0,61.6 24.06,108.27 72.67,140.02 48.12,31.78 107.3,47.66 176.61,47.66zm94.32 -1247.36c84.69,0 162.65,12.52 233.87,37.53 71.22,25.03 132.35,62.09 183.35,111.17 51.01,49.09 90.95,110.69 119.83,184.79 28.88,74.11 43.31,160.26 43.31,258.43l0 857.55 -282.96 0 0 -158.8c-50.06,61.6 -113.57,108.76 -190.57,141.48 -77.01,32.72 -164.58,49.08 -262.75,49.08 -75.07,0 -142.92,-9.63 -203.56,-28.88 -60.65,-19.25 -112.62,-46.67 -155.92,-83.24 -43.31,-36.58 -76.52,-79.9 -99.62,-129.46 -23.1,-50.05 -34.64,-105.39 -34.64,-166.99 0,-124.64 47.16,-222.81 141.48,-295 94.32,-71.69 221.37,-107.79 381.13,-107.79l401.35 0 0 -92.88c0,-99.13 -25.99,-174.68 -77.97,-227.13 -51.97,-52.46 -127.04,-78.44 -225.21,-78.44 -82.78,0 -154.95,18.29 -216.55,54.85 -61.6,36.57 -120.32,88.55 -176.14,155.92l-176.12 -179.01c73.14,-103.95 160.72,-180.46 262.75,-229.55 102.02,-49.08 213.67,-73.63 334.94,-73.63zm1307.99 1449.47l-306.08 0 0 -2165.54 306.08 0 0 2165.54zm1095.76 -1169.39c-63.52,0 -123.2,12.03 -178.05,36.09 -55.35,24.07 -102.02,56.3 -140.52,97.7 -38.5,41.38 -69.31,90.46 -91.44,146.77 -22.13,56.78 -33.2,117.42 -33.2,182.86 0,65.45 11.07,125.6 33.2,181.42 22.13,55.35 52.94,103.95 91.44,145.33 38.5,41.4 84.7,73.16 139.08,96.26 53.89,23.09 113.08,34.65 176.61,34.65 63.51,0 122.7,-11.56 176.61,-34.65 54.38,-23.1 101.05,-54.86 140.51,-96.26 39.47,-41.38 70.75,-89.98 92.89,-145.33 22.13,-55.82 33.19,-115.97 33.19,-181.42 0,-65.44 -11.06,-126.08 -33.19,-182.86 -22.14,-56.31 -53.42,-105.88 -92.89,-148.23 -39.46,-42.35 -86.13,-74.58 -140.51,-97.68 -53.91,-23.11 -112.13,-34.65 -173.73,-34.65zm-1.44 -280.08c103.94,0 201.64,19.25 293.06,57.75 91.44,38.5 171.33,90.95 239.67,157.36 68.32,66.41 122.23,144.38 161.68,233.89 39.47,89.51 59.19,186.23 59.19,290.18 0,103.95 -19.72,201.15 -59.19,291.62 -39.45,90.48 -93.36,169.39 -161.68,236.77 -68.34,67.36 -148.23,119.83 -239.67,157.36 -91.42,37.54 -189.12,56.3 -293.06,56.3 -103.95,0 -201.15,-19.25 -291.63,-57.74 -90.47,-38.5 -169.88,-90.96 -238.2,-157.37 -68.35,-66.42 -121.76,-144.84 -160.26,-235.32 -38.5,-90.47 -57.75,-187.67 -57.75,-291.62 0,-103.95 19.25,-200.67 57.75,-290.18 38.5,-89.51 91.44,-167.48 158.81,-233.89 67.37,-66.41 146.77,-118.86 238.21,-157.36 91.43,-38.5 189.12,-57.75 293.07,-57.75z"/>
  <path id="_1_0" fill="#F7D513" fill-rule="nonzero" d="M9086.32 292.79c-98.17,0 -189.11,17.81 -272.85,53.41 -267.19,113.65 -412.72,365.52 -411.44,651.88l-317.62 0c0,-134.8 24.39,-265.15 77.95,-389.12 160.67,-371.93 518.01,-596.24 921.08,-596.24 404.57,0 759.11,224.84 922.52,596.24 52.01,118.19 78.48,245.22 79.39,381.09l-314.73 0c-1.41,-282.75 -150.26,-530.83 -412.87,-643.85 -82.79,-35.6 -173.24,-53.41 -271.43,-53.41z"/>
  <path id="_1_1" fill="#FEFEFE" fill-rule="nonzero" d="M6357.17 2710.42l0 348.72 -55.09 0 0 -215.16 -98.22 128.89 -18.71 0 -98.75 -128.89 0 215.16 -55.08 0 0 -348.72 19.22 0 143.96 191.77 143.96 -191.77 18.71 0zm215.15 101.86l-57.17 142.4 113.82 0 -56.65 -142.4zm76.92 189.69l-154.35 0 -24.43 57.17 -58.73 0 151.24 -348.72 18.71 0 151.23 348.72 -59.25 0 -24.42 -57.17zm241.66 -291.55c25.29,0 47.46,5.8 66.52,17.41 19.05,11.61 33.78,26.25 44.17,43.92l-38.46 29.62c-9,-13.17 -19.57,-23.39 -31.7,-30.66 -12.12,-7.28 -25.64,-10.92 -40.53,-10.92 -13.86,0 -25.99,3.38 -36.38,10.14 -10.4,6.75 -15.59,17.23 -15.59,31.44 0,6.58 1.21,12.21 3.63,16.89 2.43,4.68 5.72,8.83 9.88,12.47 4.16,3.64 9.18,7.02 15.07,10.14 5.89,3.11 12.3,6.23 19.23,9.35l38.46 17.67c12.81,5.89 24.33,12.13 34.56,18.71 10.22,6.58 18.88,13.77 25.98,21.57 7.1,7.79 12.47,16.37 16.11,25.72 3.64,9.36 5.46,19.92 5.46,31.7 0,15.25 -2.95,29.02 -8.84,41.32 -5.89,12.3 -13.94,22.69 -24.16,31.18 -10.22,8.49 -22.35,15.07 -36.38,19.75 -14.03,4.68 -29.19,7.02 -45.48,7.02 -28.75,0 -54.22,-6.67 -76.39,-20.01 -22.18,-13.34 -39.85,-31.44 -53.01,-54.31l38.98 -29.62c4.85,7.27 10.3,14.2 16.37,20.78 6.06,6.59 12.73,12.39 20.01,17.41 7.27,5.03 15.33,9.01 24.16,11.96 8.84,2.94 18.62,4.42 29.36,4.42 17.67,0 31.97,-4.25 42.88,-12.74 10.91,-8.49 16.37,-20.18 16.37,-35.08 0,-6.58 -1.21,-12.38 -3.64,-17.41 -2.42,-5.02 -5.89,-9.44 -10.39,-13.25 -4.51,-3.81 -9.79,-7.36 -15.85,-10.65 -6.07,-3.29 -12.91,-6.67 -20.53,-10.14l-37.94 -17.67c-11.09,-5.19 -21.48,-10.74 -31.18,-16.63 -9.7,-5.89 -18.19,-12.64 -25.47,-20.27 -7.27,-7.62 -12.99,-16.19 -17.15,-25.72 -4.15,-9.53 -6.23,-20.36 -6.23,-32.48 0,-14.21 2.86,-27.03 8.57,-38.46 5.72,-11.43 13.52,-21.22 23.39,-29.36 9.87,-8.15 21.31,-14.38 34.3,-18.71 12.99,-4.33 26.94,-6.5 41.84,-6.5zm290.51 0c25.29,0 47.46,5.8 66.52,17.41 19.05,11.61 33.78,26.25 44.17,43.92l-38.46 29.62c-9,-13.17 -19.57,-23.39 -31.7,-30.66 -12.12,-7.28 -25.64,-10.92 -40.53,-10.92 -13.86,0 -25.99,3.38 -36.38,10.14 -10.4,6.75 -15.59,17.23 -15.59,31.44 0,6.58 1.21,12.21 3.63,16.89 2.43,4.68 5.72,8.83 9.88,12.47 4.16,3.64 9.18,7.02 15.07,10.14 5.89,3.11 12.3,6.23 19.23,9.35l38.46 17.67c12.81,5.89 24.33,12.13 34.56,18.71 10.22,6.58 18.88,13.77 25.98,21.57 7.1,7.79 12.47,16.37 16.11,25.72 3.64,9.36 5.46,19.92 5.46,31.7 0,15.25 -2.95,29.02 -8.84,41.32 -5.89,12.3 -13.94,22.69 -24.16,31.18 -10.22,8.49 -22.35,15.07 -36.38,19.75 -14.03,4.68 -29.19,7.02 -45.48,7.02 -28.75,0 -54.22,-6.67 -76.39,-20.01 -22.18,-13.34 -39.85,-31.44 -53.01,-54.31l38.98 -29.62c4.85,7.27 10.3,14.2 16.37,20.78 6.06,6.59 12.73,12.39 20.01,17.41 7.27,5.03 15.33,9.01 24.16,11.96 8.84,2.94 18.62,4.42 29.36,4.42 17.67,0 31.97,-4.25 42.88,-12.74 10.91,-8.49 16.37,-20.18 16.37,-35.08 0,-6.58 -1.21,-12.38 -3.64,-17.41 -2.42,-5.02 -5.89,-9.44 -10.39,-13.25 -4.51,-3.81 -9.79,-7.36 -15.85,-10.65 -6.07,-3.29 -12.91,-6.67 -20.53,-10.14l-37.94 -17.67c-11.09,-5.19 -21.48,-10.74 -31.18,-16.63 -9.7,-5.89 -18.19,-12.64 -25.47,-20.27 -7.27,-7.62 -12.99,-16.19 -17.15,-25.72 -4.15,-9.53 -6.23,-20.36 -6.23,-32.48 0,-14.21 2.86,-27.03 8.57,-38.46 5.72,-11.43 13.52,-21.22 23.39,-29.36 9.87,-8.15 21.31,-14.38 34.3,-18.71 12.99,-4.33 26.94,-6.5 41.84,-6.5zm315.97 101.86l-57.17 142.4 113.82 0 -56.65 -142.4zm76.92 189.69l-154.35 0 -24.43 57.17 -58.73 0 151.24 -348.72 18.71 0 151.23 348.72 -59.25 0 -24.42 -57.17zm298.3 -291.55c30.49,0 57.69,6.24 81.6,18.71 23.9,12.47 44,30.14 60.28,53.01l-40.02 32.74c-12.12,-16.98 -26.59,-30.23 -43.39,-39.76 -16.8,-9.52 -36.47,-14.29 -58.99,-14.29 -18.36,0 -35.08,3.21 -50.15,9.62 -15.07,6.41 -28.06,15.24 -38.98,26.5 -10.91,11.26 -19.31,24.6 -25.2,40.02 -5.89,15.42 -8.84,32.13 -8.84,50.15 0,18.36 3.04,35.43 9.1,51.19 6.06,15.76 14.72,29.36 25.98,40.8 11.26,11.43 24.6,20.35 40.02,26.76 15.42,6.41 32.48,9.62 51.19,9.62 23.21,0 43.48,-4.77 60.81,-14.3 17.32,-9.52 31.18,-22.08 41.57,-37.67l0 -36.9 -105.5 0 0 -48.86 160.59 0 0 96.67c-7.28,13.51 -16.46,25.81 -27.54,36.9 -11.09,11.08 -23.48,20.61 -37.16,28.58 -13.69,7.97 -28.59,14.12 -44.7,18.45 -16.11,4.33 -33,6.5 -50.67,6.5 -25.64,0 -49.46,-4.51 -71.46,-13.52 -22,-9 -41.05,-21.48 -57.16,-37.41 -16.11,-15.94 -28.85,-34.74 -38.2,-56.39 -9.36,-21.66 -14.03,-44.96 -14.03,-69.9 0,-24.95 4.67,-48.25 14.03,-69.9 9.35,-21.65 22.17,-40.45 38.46,-56.39 16.28,-15.94 35.42,-28.41 57.42,-37.42 22,-9 45.65,-13.51 70.94,-13.51zm453.18 55.09l-170.46 0 0 87.83 128.37 0 0 47.81 -128.37 0 0 108.62 176.7 0 0 49.37 -231.78 0 0 -343 225.54 0 0 49.37zm308.71 249.98c11.78,0 22.61,-2.34 32.48,-7.02 9.88,-4.68 19.49,-11.52 28.85,-20.53l-69.12 -83.67c-13.86,10.74 -25.21,20.7 -34.04,29.88 -8.84,9.18 -13.26,20.36 -13.26,33.52 0,14.21 5.2,25.73 15.59,34.56 10.4,8.84 23.56,13.26 39.5,13.26zm9.88 -257.26c-10.05,0 -17.59,2.86 -22.61,8.58 -5.03,5.72 -7.54,13.08 -7.54,22.09 0,9.35 2.26,17.93 6.76,25.72 4.5,7.8 10.22,15.85 17.15,24.17 11.09,-8.66 19.75,-16.89 25.98,-24.69 6.24,-7.79 9.36,-16.72 9.36,-26.76 0,-8.32 -2.34,-15.25 -7.02,-20.79 -4.67,-5.54 -12.04,-8.32 -22.08,-8.32zm177.21 148.64c-10.04,14.9 -19.75,29.45 -29.1,43.65 -9.35,14.21 -19.06,27.37 -29.1,39.5l56.64 69.12 -64.96 0 -26.5 -32.22c-13.52,11.78 -28.07,21.05 -43.66,27.8 -15.59,6.76 -33.26,10.14 -53.01,10.14 -15.59,0 -29.97,-2.17 -43.13,-6.5 -13.17,-4.33 -24.6,-10.57 -34.3,-18.71 -9.7,-8.14 -17.33,-17.84 -22.87,-29.1 -5.54,-11.26 -8.31,-23.82 -8.31,-37.68 0,-11.43 1.9,-21.91 5.71,-31.44 3.81,-9.53 9.01,-18.45 15.59,-26.77 6.59,-8.31 14.3,-16.28 23.13,-23.9 8.83,-7.63 18.45,-15.42 28.84,-23.39 -10.04,-13.17 -18.1,-25.9 -24.16,-38.2 -6.07,-12.3 -9.1,-25.72 -9.1,-40.27 0,-11.44 1.82,-21.92 5.46,-31.45 3.64,-9.52 9.01,-17.75 16.11,-24.68 7.1,-6.93 15.68,-12.39 25.73,-16.37 10.04,-3.99 21.3,-5.98 33.78,-5.98 12.12,0 23.12,1.91 33,5.72 9.87,3.81 18.27,8.92 25.2,15.33 6.93,6.41 12.3,14.03 16.11,22.87 3.81,8.83 5.72,18.45 5.72,28.84 0,18.02 -5.28,34.21 -15.85,48.59 -10.57,14.38 -24.51,28.32 -41.84,41.84l62.37 75.35c7.62,-10.39 15.41,-21.65 23.38,-33.78 7.97,-12.12 16.46,-24.94 25.47,-38.45l43.65 30.14zm306.12 -196.45c25.29,0 47.46,5.8 66.52,17.41 19.05,11.61 33.78,26.25 44.17,43.92l-38.46 29.62c-9,-13.17 -19.57,-23.39 -31.7,-30.66 -12.12,-7.28 -25.64,-10.92 -40.53,-10.92 -13.86,0 -25.99,3.38 -36.38,10.14 -10.4,6.75 -15.59,17.23 -15.59,31.44 0,6.58 1.21,12.21 3.63,16.89 2.43,4.68 5.72,8.83 9.88,12.47 4.16,3.64 9.18,7.02 15.07,10.14 5.89,3.11 12.3,6.23 19.23,9.35l38.46 17.67c12.81,5.89 24.33,12.13 34.56,18.71 10.22,6.58 18.88,13.77 25.98,21.57 7.1,7.79 12.47,16.37 16.11,25.72 3.64,9.36 5.46,19.92 5.46,31.7 0,15.25 -2.95,29.02 -8.84,41.32 -5.89,12.3 -13.94,22.69 -24.16,31.18 -10.22,8.49 -22.35,15.07 -36.38,19.75 -14.03,4.68 -29.19,7.02 -45.48,7.02 -28.75,0 -54.22,-6.67 -76.39,-20.01 -22.18,-13.34 -39.85,-31.44 -53.01,-54.31l38.98 -29.62c4.85,7.27 10.3,14.2 16.37,20.78 6.06,6.59 12.73,12.39 20.01,17.41 7.27,5.03 15.33,9.01 24.16,11.96 8.84,2.94 18.62,4.42 29.36,4.42 17.67,0 31.97,-4.25 42.88,-12.74 10.91,-8.49 16.37,-20.18 16.37,-35.08 0,-6.58 -1.21,-12.38 -3.64,-17.41 -2.42,-5.02 -5.89,-9.44 -10.39,-13.25 -4.51,-3.81 -9.79,-7.36 -15.85,-10.65 -6.07,-3.29 -12.91,-6.67 -20.53,-10.14l-37.94 -17.67c-11.09,-5.19 -21.48,-10.74 -31.18,-16.63 -9.7,-5.89 -18.19,-12.64 -25.47,-20.27 -7.27,-7.62 -12.99,-16.19 -17.15,-25.72 -4.15,-9.53 -6.23,-20.36 -6.23,-32.48 0,-14.21 2.86,-27.03 8.57,-38.46 5.72,-11.43 13.52,-21.22 23.39,-29.36 9.87,-8.15 21.31,-14.38 34.3,-18.71 12.99,-4.33 26.94,-6.5 41.84,-6.5zm242.17 54.57l0 112.77 69.12 0c19.75,0 34.82,-5.19 45.22,-15.59 10.39,-10.39 15.59,-23.9 15.59,-40.53 0,-16.63 -5.2,-30.23 -15.59,-40.8 -10.4,-10.57 -25.47,-15.85 -45.22,-15.85l-69.12 0zm70.16 -48.85c17.33,0 33.18,2.51 47.56,7.53 14.37,5.03 26.67,12.22 36.89,21.57 10.22,9.36 18.11,20.44 23.65,33.26 5.54,12.82 8.32,27.03 8.32,42.62 0,15.59 -2.78,29.79 -8.32,42.61 -5.54,12.82 -13.43,23.91 -23.65,33.26 -10.22,9.36 -22.52,16.63 -36.89,21.83 -14.38,5.2 -30.23,7.8 -47.56,7.8l-70.16 0 0 132.52 -55.08 0 0 -343 125.24 0zm306.63 96.14l-57.17 142.4 113.82 0 -56.65 -142.4zm76.92 189.69l-154.35 0 -24.43 57.17 -58.73 0 151.24 -348.72 18.71 0 151.23 348.72 -59.25 0 -24.42 -57.17z"/>
 </g>
</svg>
