<?xml version="1.0" encoding="UTF-8"?>
<!DOCTYPE svg PUBLIC "-//W3C//DTD SVG 1.1//EN" "http://www.w3.org/Graphics/SVG/1.1/DTD/svg11.dtd">
<!-- Creator: CorelDRAW -->
<svg xmlns="http://www.w3.org/2000/svg" xml:space="preserve" width="301mm" height="60.5mm" version="1.1" shape-rendering="geometricPrecision" text-rendering="geometricPrecision" image-rendering="optimizeQuality" fill-rule="evenodd" clip-rule="evenodd"
viewBox="0 0 30100 6050"
 xmlns:xlink="http://www.w3.org/1999/xlink"
 xmlns:xodm="http://www.corel.com/coreldraw/odm/2003">
 <g id="Слой_x0020_1">
  <metadata id="CorelCorpID_0Corel-Layer"/>
  <path id="_1" fill="#FEFEFE" fill-rule="nonzero" d="M605.47 3732.22l1660.28 0 0 522.27 -2243.02 0 0 -3628.37 582.74 0 0 3106.1zm3413.96 -1748.2c-194.23,0 -360.98,59.56 -500.26,178.65 -139.26,119.12 -230.89,279.47 -274.87,481.03l1467.82 0c0,-102.6 -19.23,-195.14 -57.72,-277.6 -38.46,-82.47 -88.86,-152.1 -151.16,-208.92 -62.3,-56.82 -135.61,-99.86 -219.91,-129.19 -84.31,-29.33 -172.27,-43.97 -263.9,-43.97zm1275.43 747.67c0,73.27 -5.49,142.93 -16.49,208.88 -10.97,65.98 -20.13,117.28 -27.49,153.94l-2012.09 0c40.33,223.56 138.35,397.66 294.12,522.27 155.78,124.6 350.95,186.91 585.48,186.91 157.61,0 299.64,-28.4 426.09,-85.22 126.41,-56.81 246.47,-134.67 360.07,-233.63l274.86 395.83c-142.93,135.61 -304.19,241.89 -483.77,318.84 -179.59,76.98 -377.5,115.44 -593.74,115.44 -208.88,0 -402.21,-35.71 -579.99,-107.18 -177.75,-71.47 -330.75,-170.42 -459.03,-296.87 -128.29,-126.44 -229.08,-275.8 -302.35,-448.06 -73.31,-172.26 -109.96,-357.33 -109.96,-555.24 0,-197.92 35.72,-382.99 107.18,-555.25 71.47,-172.26 170.42,-321.61 296.87,-448.06 126.45,-126.45 273.96,-226.31 442.57,-299.61 168.59,-73.31 351.82,-109.96 549.73,-109.96 179.59,0 345.43,31.17 497.56,93.47 152.09,62.3 284.02,148.42 395.79,258.38 111.8,109.96 198.85,240.98 261.15,393.08 62.3,152.1 93.44,316.1 93.44,492.04zm5222.66 1522.8l-582.73 0 0 -1660.25 -1825.19 0 0 1660.25 -582.73 0 0 -3628.37 582.73 0 0 1445.85 1825.19 0 0 -1445.85 582.73 0 0 3628.37zm11258.94 -3688.83c267.57,0 502.14,61.36 703.7,184.16 201.59,122.77 357.33,277.61 467.29,464.52l-406.83 313.39c-95.28,-139.29 -207.07,-247.41 -335.33,-324.36 -128.28,-76.98 -271.21,-115.44 -428.83,-115.44 -146.58,0 -274.86,35.71 -384.82,107.18 -109.96,71.47 -164.9,182.33 -164.9,332.62 0,69.62 12.81,129.19 38.46,178.65 25.65,49.49 60.49,93.47 104.47,131.93 43.98,38.49 97.12,74.24 159.42,107.21 62.3,32.98 130.09,65.99 203.4,98.96l406.82 186.91c135.61,62.3 257.47,128.28 365.59,197.91 108.12,69.63 199.75,145.68 274.87,228.15 75.14,82.47 131.96,173.19 170.42,272.12 38.49,98.95 57.72,210.75 57.72,335.36 0,161.26 -31.13,306.93 -93.44,437.06 -62.3,130.12 -147.51,240.05 -255.63,329.84 -108.12,89.79 -236.4,159.45 -384.82,208.91 -148.45,49.5 -308.81,74.21 -481.04,74.21 -304.22,0 -573.6,-70.53 -808.13,-211.65 -234.57,-141.1 -421.51,-332.59 -560.76,-574.48l412.31 -313.35c51.3,76.95 109.02,150.25 173.16,219.88 64.14,69.63 134.71,131.03 211.66,184.17 76.98,53.14 162.19,95.31 255.63,126.44 93.47,31.17 197.01,46.72 310.62,46.72 186.9,0 338.1,-44.88 453.54,-134.67 115.44,-89.79 173.17,-213.5 173.17,-371.08 0,-69.66 -12.81,-131.02 -38.46,-184.17 -25.66,-53.14 -62.31,-99.89 -109.96,-140.19 -47.66,-40.33 -103.54,-77.88 -167.68,-112.7 -64.14,-34.81 -136.51,-70.56 -217.14,-107.21l-401.34 -186.91c-117.26,-54.98 -227.21,-113.61 -329.85,-175.91 -102.6,-62.3 -192.39,-133.77 -269.38,-214.4 -76.95,-80.63 -137.44,-171.36 -181.42,-272.15 -43.98,-100.77 -65.95,-215.31 -65.95,-343.59 0,-150.26 30.23,-285.87 90.7,-406.83 60.46,-120.93 142.93,-224.46 247.4,-310.61 104.44,-86.11 225.37,-152.1 362.82,-197.88 137.45,-45.82 284.96,-68.72 442.54,-68.72zm2561.86 577.21l0 1192.99 731.18 0c208.91,0 368.33,-54.98 478.29,-164.93 109.93,-109.96 164.91,-252.9 164.91,-428.8 0,-175.94 -54.98,-319.78 -164.91,-431.58 -109.96,-111.76 -269.38,-167.68 -478.29,-167.68l-731.18 0zm742.18 -516.75c183.23,0 350.91,26.55 503.01,79.73 152.1,53.14 282.22,129.18 390.34,228.14 108.12,98.96 191.49,216.24 250.11,351.82 58.66,135.61 87.99,285.89 87.99,450.8 0,164.94 -29.33,315.19 -87.99,450.8 -58.62,135.61 -141.99,252.89 -250.11,351.85 -108.12,98.96 -238.24,175.91 -390.34,230.89 -152.1,54.98 -319.78,82.47 -503.01,82.47l-742.18 0 0 1401.87 -582.74 0 0 -3628.37 1324.92 0zm3243.51 1017.05l-604.7 1506.31 1203.95 0 -599.25 -1506.31zm813.65 2006.58l-1632.75 0 -258.41 604.74 -621.2 0 1599.76 -3688.83 197.91 0 1599.78 3688.83 -626.71 0 -258.38 -604.74zm-16881.07 219.92c96.21,0 186,-15.59 271.22,-46.72 84.27,-31.17 159.42,-75.15 223.56,-131.97 64.14,-56.78 115.44,-124.6 152.09,-203.39 36.66,-78.79 54.98,-164.01 54.98,-255.64l0 -49.49 -696.37 0c-153.93,0 -273.02,27.49 -355.49,82.47 -83.37,54.98 -124.61,137.45 -124.61,247.4 0,117.29 45.82,206.14 138.36,266.61 91.63,60.49 204.3,90.73 336.26,90.73zm179.58 -2374.95c161.26,0 309.68,23.84 445.29,71.47 135.61,47.65 251.99,118.21 349.1,211.65 97.12,93.47 173.17,210.76 228.15,351.85 54.98,141.1 82.47,305.13 82.47,492.04l0 1632.76 -538.76 0 0 -302.35c-95.31,117.28 -216.24,207.07 -362.85,269.37 -146.61,62.31 -313.35,93.44 -500.26,93.44 -142.94,0 -272.12,-18.32 -387.57,-54.98 -115.47,-36.65 -214.43,-88.85 -296.87,-158.48 -82.46,-69.66 -145.7,-152.13 -189.68,-246.5 -43.98,-95.28 -65.95,-200.66 -65.95,-317.94 0,-237.31 89.79,-424.22 269.38,-561.67 179.58,-136.51 421.47,-205.23 725.67,-205.23l764.15 0 0 -176.85c0,-188.74 -49.49,-332.58 -148.45,-432.44 -98.95,-99.89 -241.88,-149.35 -428.79,-149.35 -157.62,0 -295.03,34.81 -412.32,104.44 -117.28,69.62 -229.08,168.58 -335.36,296.86l-335.32 -340.84c139.25,-197.91 306,-343.59 500.26,-437.06 194.24,-93.44 406.83,-140.19 637.71,-140.19zm2490.39 2759.77l-582.76 0 0 -4123.15 582.76 0 0 4123.15zm2086.3 -2226.5c-120.93,0 -234.56,22.91 -339,68.73 -105.38,45.81 -194.24,107.18 -267.54,186 -73.31,78.79 -131.96,172.23 -174.1,279.45 -42.14,108.12 -63.21,223.56 -63.21,348.17 0,124.6 21.07,239.14 63.21,345.42 42.14,105.38 100.79,197.92 174.1,276.71 73.3,78.82 161.26,139.28 264.8,183.26 102.6,43.98 215.3,65.98 336.26,65.98 120.93,0 233.63,-22 336.26,-65.98 103.54,-43.98 192.4,-104.44 267.54,-183.26 75.15,-78.79 134.71,-171.33 176.84,-276.71 42.14,-106.28 63.21,-220.82 63.21,-345.42 0,-124.61 -21.07,-240.05 -63.21,-348.17 -42.13,-107.22 -101.69,-201.59 -176.84,-282.22 -75.14,-80.63 -164,-142 -267.54,-185.98 -102.63,-44 -213.49,-65.98 -330.78,-65.98zm-2.74 -533.27c197.91,0 383.92,36.65 557.99,109.96 174.1,73.3 326.19,173.16 456.32,299.61 130.09,126.45 232.72,274.9 307.84,445.32 75.14,170.42 112.7,354.59 112.7,552.5 0,197.91 -37.56,382.98 -112.7,555.24 -75.12,172.27 -177.75,322.52 -307.84,450.81 -130.13,128.25 -282.22,228.14 -456.32,299.61 -174.07,71.47 -360.08,107.18 -557.99,107.18 -197.91,0 -382.98,-36.65 -555.24,-109.92 -172.26,-73.31 -323.46,-173.2 -453.55,-299.65 -130.12,-126.44 -231.82,-275.76 -305.13,-448.03 -73.3,-172.26 -109.95,-357.33 -109.95,-555.24 0,-197.91 36.65,-382.08 109.95,-552.5 73.31,-170.42 174.1,-318.87 302.39,-445.32 128.25,-126.45 279.44,-226.31 453.54,-299.61 174.07,-73.31 360.08,-109.96 557.99,-109.96z"/>
  <path id="_1_0" fill="#F7D513" fill-rule="nonzero" d="M17042.19 559.58c-186.91,0 -360.07,33.91 -519.49,101.7 -508.75,216.39 -785.82,695.93 -783.39,1241.17l-604.74 0c0,-256.66 46.44,-504.85 148.42,-740.88 305.91,-708.15 986.29,-1135.23 1753.72,-1135.23 770.29,0 1445.31,428.08 1756.46,1135.23 99.02,225.03 149.41,466.89 151.16,725.58l-599.25 0c-2.68,-538.35 -286.09,-1010.69 -786.1,-1225.87 -157.62,-67.79 -329.85,-101.7 -516.79,-101.7z"/>
  <path id="_1_1" fill="#FEFEFE" fill-rule="nonzero" d="M15163.62 5743.54c22.43,0 43.05,-4.45 61.85,-13.35 18.8,-8.91 37.1,-21.94 54.91,-39.09l-131.6 -159.31c-26.38,20.45 -47.99,39.42 -64.81,56.9 -16.82,17.48 -25.23,38.75 -25.23,63.82 0,27.05 9.89,48.98 29.68,65.8 19.79,16.82 44.86,25.23 75.2,25.23zm18.8 -489.79c-19.13,0 -33.47,5.44 -43.04,16.33 -9.56,10.88 -14.35,24.9 -14.35,42.05 0,17.81 4.29,34.14 12.87,48.98 8.57,14.84 19.46,30.18 32.65,46.01 21.11,-16.49 37.6,-32.16 49.47,-47 11.88,-14.84 17.81,-31.83 17.81,-50.96 0,-15.83 -4.45,-29.02 -13.35,-39.58 -8.91,-10.55 -22.93,-15.83 -42.06,-15.83zm337.42 282.99c-19.13,28.37 -37.6,56.07 -55.41,83.12 -17.81,27.04 -36.29,52.11 -55.42,75.2l107.86 131.6 -123.69 0 -50.46 -61.35c-25.73,22.43 -53.43,40.08 -83.12,52.94 -29.68,12.86 -63.32,19.29 -100.92,19.29 -29.69,0 -57.06,-4.12 -82.13,-12.36 -25.07,-8.25 -46.84,-20.12 -65.31,-35.63 -18.47,-15.5 -32.98,-33.97 -43.53,-55.41 -10.56,-21.44 -15.83,-45.35 -15.83,-71.73 0,-21.77 3.62,-41.73 10.88,-59.87 7.26,-18.14 17.15,-35.12 29.68,-50.96 12.54,-15.83 27.21,-31 44.04,-45.51 16.82,-14.51 35.12,-29.36 54.91,-44.53 -19.13,-25.06 -34.47,-49.31 -46.01,-72.72 -11.54,-23.42 -17.31,-48.98 -17.31,-76.69 0,-21.77 3.46,-41.72 10.38,-59.86 6.93,-18.14 17.16,-33.81 30.68,-47 13.52,-13.2 29.85,-23.59 48.98,-31.17 19.13,-7.59 40.57,-11.38 64.31,-11.38 23.09,0 44.04,3.63 62.84,10.88 18.8,7.26 34.79,16.99 47.99,29.19 13.19,12.21 23.41,26.72 30.67,43.54 7.26,16.82 10.88,35.13 10.88,54.92 0,34.3 -10.06,65.14 -30.18,92.51 -20.11,27.38 -46.67,53.93 -79.65,79.66l118.74 143.47c14.51,-19.79 29.35,-41.23 44.53,-64.32 15.17,-23.08 31.33,-47.49 48.48,-73.22l83.12 57.39zm582.79 -374.02c48.16,0 90.38,11.05 126.66,33.15 36.28,22.09 64.31,49.97 84.1,83.61l-73.22 56.4c-17.15,-25.07 -37.27,-44.53 -60.36,-58.38 -23.09,-13.85 -48.81,-20.78 -77.18,-20.78 -26.38,0 -49.47,6.43 -69.26,19.29 -19.79,12.87 -29.68,32.82 -29.68,59.87 0,12.53 2.3,23.25 6.92,32.16 4.62,8.9 10.89,16.82 18.8,23.74 7.92,6.93 17.48,13.36 28.7,19.3 11.21,5.94 23.41,11.87 36.61,17.81l73.22 33.64c24.41,11.22 46.34,23.09 65.8,35.62 19.46,12.54 35.95,26.22 49.47,41.07 13.53,14.84 23.75,31.16 30.68,48.98 6.92,17.81 10.39,37.93 10.39,60.35 0,29.03 -5.61,55.25 -16.82,78.67 -11.22,23.41 -26.56,43.2 -46.02,59.37 -19.45,16.16 -42.54,28.69 -69.26,37.6 -26.71,8.9 -55.57,13.35 -86.58,13.35 -54.75,0 -103.23,-12.69 -145.45,-38.09 -42.22,-25.4 -75.86,-59.86 -100.93,-103.4l74.21 -56.4c9.24,13.85 19.63,27.04 31.17,39.58 11.54,12.53 24.24,23.58 38.1,33.15 13.85,9.56 29.19,17.15 46.01,22.75 16.82,5.61 35.45,8.41 55.9,8.41 33.64,0 60.86,-8.08 81.63,-24.24 20.78,-16.16 31.17,-38.42 31.17,-66.79 0,-12.53 -2.31,-23.58 -6.92,-33.15 -4.62,-9.56 -11.22,-17.97 -19.79,-25.23 -8.58,-7.25 -18.64,-14.02 -30.18,-20.28 -11.55,-6.27 -24.57,-12.7 -39.09,-19.3l-72.23 -33.64c-21.11,-9.89 -40.9,-20.45 -59.37,-31.66 -18.47,-11.22 -34.63,-24.08 -48.48,-38.59 -13.85,-14.51 -24.74,-30.84 -32.65,-48.98 -7.92,-18.14 -11.88,-38.76 -11.88,-61.84 0,-27.05 5.44,-51.46 16.33,-73.23 10.88,-21.76 25.72,-40.4 44.52,-55.9 18.8,-15.5 40.57,-27.38 65.31,-35.62 24.74,-8.25 51.29,-12.37 79.65,-12.37zm461.1 103.89l0 214.72 131.6 0c37.6,0 66.3,-9.89 86.09,-29.68 19.79,-19.79 29.68,-45.52 29.68,-77.18 0,-31.67 -9.89,-57.56 -29.68,-77.68 -19.79,-20.12 -48.49,-30.18 -86.09,-30.18l-131.6 0zm133.58 -93.01c32.98,0 63.16,4.79 90.54,14.35 27.37,9.57 50.79,23.25 70.25,41.06 19.46,17.81 34.47,38.92 45.02,63.33 10.56,24.41 15.84,51.45 15.84,81.14 0,29.68 -5.28,56.73 -15.84,81.14 -10.55,24.4 -25.56,45.51 -45.02,63.32 -19.46,17.81 -42.88,31.67 -70.25,41.56 -27.38,9.9 -57.56,14.84 -90.54,14.84l-133.58 0 0 252.32 -104.88 0 0 -653.06 238.46 0zm583.8 183.06l-108.84 271.11 216.69 0 -107.85 -271.11zm146.44 361.16l-293.87 0 -46.51 108.84 -111.81 0 287.94 -663.94 35.62 0 287.94 663.94 -112.8 0 -46.51 -108.84zm-5653.87 16.82c37.6,0 66.13,-9.07 85.59,-27.21 19.46,-18.14 29.19,-42.71 29.19,-73.72 0,-31 -9.73,-55.74 -29.19,-74.21 -19.46,-18.47 -47.99,-27.71 -85.59,-27.71l-168.21 0 0 202.85 168.21 0zm-168.21 -469.02l0 176.13 115.77 0c33.64,0 58.88,-8.24 75.7,-24.73 16.82,-16.5 25.23,-37.93 25.23,-64.32 0,-26.39 -8.41,-47.5 -25.23,-63.33 -16.82,-15.83 -42.06,-23.75 -75.7,-23.75l-115.77 0zm266.17 204.83c38.59,12.53 68.61,33.14 89.88,61.84 21.27,28.69 31.83,63.49 31.83,104.39 0,27.71 -4.95,53.1 -14.84,76.19 -9.9,23.09 -24.08,43.04 -42.39,59.86 -18.47,16.82 -40.73,30.02 -66.62,39.58 -26.06,9.57 -55.25,14.35 -87.41,14.35l-279.52 0 0 -653.06 228.57 0c29.68,0 56.56,4.29 80.64,12.87 24.08,8.57 44.69,20.61 61.84,36.11 17.15,15.5 30.35,33.81 39.58,54.92 9.24,21.11 13.85,44.53 13.85,70.25 0,50.79 -18.47,91.69 -55.41,122.7zm452.2 -52.45c-34.97,0 -64.98,10.72 -90.05,32.16 -25.06,21.44 -41.55,50.3 -49.47,86.58l264.19 0c0,-18.47 -3.46,-35.12 -10.39,-49.97 -6.92,-14.84 -16,-27.37 -27.21,-37.6 -11.21,-10.22 -24.41,-17.97 -39.58,-23.25 -15.17,-5.28 -31,-7.92 -47.49,-7.92zm229.56 134.57c0,13.2 -0.99,25.73 -2.97,37.6 -1.98,11.88 -3.63,21.11 -4.95,27.71l-362.15 0c7.26,40.24 24.9,71.57 52.94,94 28.03,22.43 63.16,33.64 105.38,33.64 28.36,0 53.92,-5.11 76.68,-15.33 22.76,-10.23 44.36,-24.25 64.81,-42.06l49.48 71.25c-25.73,24.4 -54.75,43.53 -87.08,57.39 -32.32,13.85 -67.94,20.77 -106.86,20.77 -37.6,0 -72.4,-6.43 -104.39,-19.29 -31.99,-12.86 -59.54,-30.67 -82.62,-53.43 -23.09,-22.76 -41.23,-49.64 -54.42,-80.65 -13.2,-31 -19.79,-64.31 -19.79,-99.93 0,-35.62 6.43,-68.94 19.29,-99.94 12.86,-31 30.67,-57.88 53.43,-80.64 22.76,-22.76 49.31,-40.74 79.66,-53.93 30.34,-13.19 63.32,-19.79 98.94,-19.79 32.33,0 62.18,5.61 89.55,16.82 27.38,11.22 51.13,26.72 71.24,46.51 20.12,19.79 35.79,43.37 47,70.75 11.22,27.37 16.83,56.89 16.83,88.55zm272.43 204.83c17.32,0 33.48,-2.81 48.81,-8.41 15.18,-5.61 28.7,-13.53 40.24,-23.75 11.55,-10.23 20.78,-22.43 27.38,-36.61 6.59,-14.19 9.89,-29.52 9.89,-46.01l0 -8.91 -125.33 0c-27.71,0 -49.15,4.95 -63.99,14.84 -15,9.9 -22.43,24.74 -22.43,44.53 0,21.11 8.25,37.11 24.91,47.99 16.49,10.88 36.77,16.33 60.52,16.33zm32.32 -427.46c29.03,0 55.74,4.29 80.15,12.86 24.41,8.58 45.35,21.28 62.83,38.1 17.48,16.82 31.17,37.93 41.07,63.33 9.89,25.39 14.84,54.91 14.84,88.55l0 293.88 -96.97 0 0 -54.42c-17.15,21.11 -38.92,37.27 -65.31,48.48 -26.38,11.22 -56.4,16.82 -90.04,16.82 -25.73,0 -48.98,-3.29 -69.76,-9.89 -20.78,-6.6 -38.59,-16 -53.43,-28.53 -14.84,-12.53 -26.22,-27.38 -34.14,-44.36 -7.91,-17.15 -11.87,-36.12 -11.87,-57.23 0,-42.71 16.16,-76.35 48.48,-101.09 32.33,-24.57 75.86,-36.94 130.62,-36.94l137.53 0 0 -31.83c0,-33.97 -8.9,-59.86 -26.71,-77.84 -17.81,-17.97 -43.54,-26.88 -77.18,-26.88 -28.37,0 -53.1,6.27 -74.21,18.8 -21.11,12.54 -41.23,30.35 -60.36,53.43l-60.36 -61.34c25.07,-35.62 55.08,-61.85 90.04,-78.67 34.96,-16.82 73.22,-25.23 114.78,-25.23zm762.89 292.89c0,32.98 -5.44,62.66 -16.33,89.05 -10.88,26.39 -25.89,48.98 -44.69,67.78 -18.8,18.8 -41.06,33.15 -66.95,43.04 -25.73,9.9 -53.6,14.84 -83.28,14.84 -30.35,0 -58.55,-4.94 -84.27,-14.84 -25.9,-9.89 -48.32,-24.24 -67.45,-43.04 -19.13,-18.8 -34.31,-41.39 -45.19,-67.78 -10.88,-26.39 -16.33,-56.07 -16.33,-89.05l0 -282 102.91 0 0 289.91c0,34.3 10.55,61.35 31.66,81.14 21.11,19.79 47.17,29.68 78.17,29.68 29.69,0 54.92,-9.89 75.7,-29.68 20.78,-19.79 31.17,-46.84 31.17,-81.14l0 -289.91 104.88 0 0 282zm369.07 120.71c9.24,0 18.97,-0.49 29.19,-1.48 10.23,-0.99 21.94,-2.14 35.13,-3.46l0 88.06c-13.19,3.3 -26.72,5.94 -40.57,7.92 -13.85,1.97 -29.02,2.96 -45.52,2.96 -54.09,0 -97.46,-13.52 -130.11,-40.56 -32.66,-27.05 -48.98,-69.93 -48.98,-128.64l0 -237.47 -79.16 0 0 -90.04 79.16 0 0 -127.65 104.88 0 0 127.65 144.47 0 0 90.04 -144.47 0 0 228.57c0,32.32 8.41,54.42 25.23,66.29 16.83,11.88 40.41,17.81 70.75,17.81zm618.42 -402.71l-236.48 541.24c-20.45,46.84 -44.86,80.81 -73.22,101.92 -28.37,21.11 -63.33,31.66 -104.89,31.66 -13.19,0 -26.88,-0.82 -41.06,-2.47 -14.18,-1.65 -27.21,-4.13 -39.09,-7.42l0 -88.07c11.22,1.32 21.61,2.31 31.17,2.97 9.57,0.66 18.31,0.99 26.22,0.99 22.43,0 42.39,-4.62 59.87,-13.85 17.48,-9.24 32.82,-28.37 46.01,-57.39l19.79 -45.52 -193.94 -464.06 111.81 0 139.52 354.23 143.47 -354.23 110.82 0z"/>
 </g>
</svg>
