<?xml version="1.0" encoding="UTF-8"?>
<!DOCTYPE svg PUBLIC "-//W3C//DTD SVG 1.1//EN" "http://www.w3.org/Graphics/SVG/1.1/DTD/svg11.dtd">
<!-- Creator: CorelDRAW -->
<svg xmlns="http://www.w3.org/2000/svg" xml:space="preserve" width="160mm" height="90mm" version="1.1" style="shape-rendering:geometricPrecision; text-rendering:geometricPrecision; image-rendering:optimizeQuality; fill-rule:evenodd; clip-rule:evenodd"
viewBox="0 0 16000 9000"
 xmlns:xlink="http://www.w3.org/1999/xlink"
 xmlns:xodm="http://www.corel.com/coreldraw/odm/2003">
 <defs>
  <style type="text/css">
   <![CDATA[
    .fil0 {fill:#FEFEFE;fill-rule:nonzero}
    .fil1 {fill:#F7D513;fill-rule:nonzero}
    .fil2 {fill:#FEFEFE;fill-rule:nonzero}
   ]]>
  </style>
 </defs>
 <g id="Слой_x0020_1">
  <metadata id="CorelCorpID_0Corel-Layer"/>
  <path id="_1" class="fil0" d="M3410.61 4743.48l532.7 0 0 167.57 -719.67 0 0 -1164.16 186.97 0 0 996.59zm1095.37 -560.91c-62.32,0 -115.82,19.11 -160.51,57.32 -44.68,38.22 -74.08,89.67 -88.19,154.34l470.95 0c0,-32.92 -6.17,-62.61 -18.52,-89.07 -12.34,-26.46 -28.51,-48.8 -48.5,-67.03 -19.99,-18.23 -43.51,-32.04 -70.56,-41.45 -27.05,-9.41 -55.27,-14.11 -84.67,-14.11zm409.22 239.89c0,23.51 -1.76,45.86 -5.29,67.02 -3.52,21.17 -6.46,37.63 -8.82,49.39l-645.58 0c12.94,71.73 44.39,127.59 94.37,167.57 49.98,39.98 112.6,59.97 187.85,59.97 50.57,0 96.14,-9.11 136.71,-27.34 40.56,-18.23 79.08,-43.21 115.53,-74.96l88.19 127c-45.86,43.51 -97.6,77.61 -155.22,102.3 -57.62,24.7 -121.12,37.04 -190.5,37.04 -67.02,0 -129.05,-11.46 -186.09,-34.39 -57.03,-22.93 -106.12,-54.68 -147.28,-95.25 -41.16,-40.57 -73.5,-88.49 -97.01,-143.76 -23.52,-55.27 -35.28,-114.65 -35.28,-178.15 0,-63.5 11.46,-122.88 34.39,-178.15 22.93,-55.27 54.68,-103.19 95.25,-143.76 40.57,-40.57 87.9,-72.61 142,-96.13 54.09,-23.52 112.88,-35.28 176.38,-35.28 57.62,0 110.83,10 159.64,29.99 48.8,19.99 91.13,47.62 126.99,82.9 35.87,35.28 63.8,77.32 83.79,126.12 19.99,48.8 29.98,101.42 29.98,157.87zm1675.69 488.59l-186.97 0 0 -532.69 -585.61 0 0 532.69 -186.97 0 0 -1164.16 186.97 0 0 463.9 585.61 0 0 -463.9 186.97 0 0 1164.16zm3612.43 -1183.56c85.85,0 161.11,19.69 225.78,59.09 64.68,39.39 114.65,89.07 149.93,149.04l-130.53 100.55c-30.57,-44.69 -66.44,-79.38 -107.59,-104.07 -41.16,-24.7 -87.02,-37.04 -137.59,-37.04 -47.03,0 -88.19,11.46 -123.47,34.39 -35.28,22.93 -52.91,58.5 -52.91,106.72 0,22.34 4.11,41.45 12.34,57.32 8.23,15.88 19.41,29.99 33.52,42.33 14.11,12.35 31.16,23.82 51.15,34.4 19.99,10.58 41.74,21.17 65.26,31.75l130.53 59.97c43.51,19.99 82.61,41.16 117.3,63.5 34.69,22.34 64.09,46.74 88.19,73.2 24.11,26.46 42.34,55.57 54.68,87.31 12.35,31.75 18.52,67.62 18.52,107.6 0,51.74 -9.99,98.48 -29.98,140.23 -19.99,41.75 -47.33,77.02 -82.02,105.83 -34.69,28.81 -75.85,51.16 -123.47,67.03 -47.63,15.88 -99.08,23.81 -154.34,23.81 -97.61,0 -184.04,-22.63 -259.29,-67.91 -75.26,-45.27 -135.24,-106.71 -179.92,-184.32l132.29 -100.54c16.46,24.69 34.98,48.21 55.56,70.55 20.58,22.34 43.22,42.04 67.91,59.09 24.7,17.05 52.04,30.58 82.02,40.57 29.99,10 63.21,14.99 99.66,14.99 59.97,0 108.48,-14.4 145.52,-43.21 37.04,-28.81 55.56,-68.5 55.56,-119.06 0,-22.35 -4.11,-42.04 -12.34,-59.09 -8.23,-17.05 -19.99,-32.05 -35.28,-44.98 -15.29,-12.94 -33.22,-24.99 -53.8,-36.16 -20.58,-11.17 -43.8,-22.64 -69.67,-34.4l-128.77 -59.97c-37.62,-17.64 -72.9,-36.45 -105.83,-56.44 -32.92,-19.99 -61.73,-42.92 -86.43,-68.79 -24.69,-25.87 -44.1,-54.98 -58.21,-87.32 -14.11,-32.33 -21.16,-69.08 -21.16,-110.24 0,-48.21 9.7,-91.72 29.1,-130.53 19.4,-38.8 45.86,-72.02 79.38,-99.66 33.51,-27.63 72.31,-48.8 116.41,-63.49 44.1,-14.7 91.43,-22.05 141.99,-22.05zm821.97 185.2l0 382.77 234.6 0c67.03,0 118.18,-17.64 153.46,-52.92 35.27,-35.28 52.91,-81.14 52.91,-137.58 0,-56.45 -17.64,-102.6 -52.91,-138.47 -35.28,-35.86 -86.43,-53.8 -153.46,-53.8l-234.6 0zm238.13 -165.8c58.79,0 112.59,8.52 161.39,25.58 48.8,17.05 90.55,41.45 125.24,73.2 34.69,31.75 61.44,69.38 80.25,112.88 18.82,43.51 28.23,91.73 28.23,144.64 0,52.92 -9.41,101.13 -28.23,144.64 -18.81,43.51 -45.56,81.14 -80.25,112.89 -34.69,31.75 -76.44,56.44 -125.24,74.08 -48.8,17.64 -102.6,26.46 -161.39,26.46l-238.13 0 0 449.79 -186.97 0 0 -1164.16 425.1 0zm1040.68 326.32l-194.02 483.3 386.29 0 -192.27 -483.3zm261.06 643.81l-523.87 0 -82.91 194.03 -199.31 0 513.28 -1183.56 63.5 0 513.29 1183.56 -201.08 0 -82.9 -194.03zm-5416.29 70.56c30.87,0 59.68,-5 87.02,-14.99 27.04,-10 51.15,-24.11 71.73,-42.34 20.58,-18.22 37.04,-39.98 48.8,-65.26 11.76,-25.28 17.64,-52.62 17.64,-82.02l0 -15.88 -223.43 0c-49.39,0 -87.6,8.82 -114.06,26.46 -26.75,17.64 -39.98,44.1 -39.98,79.38 0,37.63 14.7,66.14 44.39,85.54 29.4,19.41 65.55,29.11 107.89,29.11zm57.62 -762c51.74,0 99.36,7.65 142.87,22.93 43.51,15.29 80.85,37.93 112.01,67.91 31.16,29.99 55.56,67.62 73.2,112.89 17.64,45.27 26.46,97.9 26.46,157.87l0 523.87 -172.86 0 0 -97.01c-30.58,37.63 -69.38,66.44 -116.42,86.43 -47.04,19.99 -100.54,29.98 -160.51,29.98 -45.86,0 -87.31,-5.88 -124.35,-17.64 -37.05,-11.76 -68.8,-28.51 -95.25,-50.85 -26.46,-22.35 -46.75,-48.81 -60.86,-79.09 -14.11,-30.57 -21.16,-64.38 -21.16,-102.01 0,-76.14 28.81,-136.11 86.43,-180.21 57.62,-43.8 135.23,-65.85 232.83,-65.85l245.18 0 0 -56.74c0,-60.56 -15.88,-106.71 -47.63,-138.75 -31.75,-32.05 -77.61,-47.92 -137.58,-47.92 -50.57,0 -94.66,11.17 -132.29,33.51 -37.63,22.34 -73.5,54.09 -107.6,95.25l-107.59 -109.36c44.68,-63.5 98.18,-110.24 160.51,-140.23 62.32,-29.98 130.53,-44.98 204.61,-44.98zm799.04 885.47l-186.98 0 0 -1322.91 186.98 0 0 1322.91zm669.39 -714.37c-38.8,0 -75.26,7.35 -108.77,22.05 -33.81,14.7 -62.32,34.39 -85.84,59.68 -23.52,25.28 -42.34,55.26 -55.86,89.66 -13.52,34.69 -20.28,71.73 -20.28,111.71 0,39.98 6.76,76.73 20.28,110.83 13.52,33.81 32.34,63.5 55.86,88.78 23.52,25.29 51.74,44.69 84.96,58.8 32.92,14.11 69.08,21.17 107.89,21.17 38.8,0 74.96,-7.06 107.89,-21.17 33.22,-14.11 61.73,-33.51 85.84,-58.8 24.11,-25.28 43.22,-54.97 56.74,-88.78 13.52,-34.1 20.28,-70.85 20.28,-110.83 0,-39.98 -6.76,-77.02 -20.28,-111.71 -13.52,-34.4 -32.63,-64.68 -56.74,-90.55 -24.11,-25.87 -52.62,-45.56 -85.84,-59.67 -32.93,-14.12 -68.5,-21.17 -106.13,-21.17zm-0.88 -171.1c63.5,0 123.18,11.76 179.03,35.28 55.86,23.52 104.66,55.56 146.41,96.13 41.74,40.57 74.67,88.2 98.77,142.88 24.11,54.68 36.16,113.77 36.16,177.27 0,63.5 -12.05,122.88 -36.16,178.15 -24.1,55.27 -57.03,103.48 -98.77,144.64 -41.75,41.15 -90.55,73.2 -146.41,96.13 -55.85,22.93 -115.53,34.39 -179.03,34.39 -63.5,0 -122.88,-11.76 -178.15,-35.27 -55.27,-23.52 -103.78,-55.57 -145.52,-96.14 -41.75,-40.57 -74.38,-88.48 -97.9,-143.75 -23.52,-55.27 -35.28,-114.65 -35.28,-178.15 0,-63.5 11.76,-122.59 35.28,-177.27 23.52,-54.68 55.86,-102.31 97.02,-142.88 41.15,-40.57 89.66,-72.61 145.52,-96.13 55.85,-23.52 115.53,-35.28 179.03,-35.28z"/>
  <path id="_1_0" class="fil1" d="M8684.33 3725.54c-59.97,0 -115.53,10.88 -166.68,32.63 -163.23,69.43 -252.13,223.29 -251.35,398.23l-194.03 0c0,-82.35 14.9,-161.98 47.62,-237.71 98.15,-227.21 316.45,-364.24 562.68,-364.24 247.15,0 463.73,137.35 563.56,364.24 31.77,72.2 47.94,149.8 48.5,232.8l-192.27 0c-0.86,-172.73 -91.79,-324.28 -252.22,-393.32 -50.57,-21.75 -105.83,-32.63 -165.81,-32.63z"/>
  <path id="_1_1" class="fil2" d="M7017.12 5202.44l0 213.04 -33.66 0 0 -131.44 -60 78.74 -11.43 0 -60.32 -78.74 0 131.44 -33.66 0 0 -213.04 11.75 0 87.94 117.16 87.95 -117.16 11.43 0zm131.44 62.23l-34.92 86.99 69.53 0 -34.61 -86.99zm46.99 115.89l-94.3 0 -14.92 34.92 -35.88 0 92.39 -213.04 11.43 0 92.39 213.04 -36.19 0 -14.92 -34.92zm147.63 -178.12c15.45,0 29,3.55 40.64,10.64 11.64,7.09 20.64,16.03 26.99,26.83l-23.5 18.09c-5.5,-8.04 -11.96,-14.28 -19.36,-18.73 -7.41,-4.44 -15.67,-6.66 -24.77,-6.66 -8.46,0 -15.87,2.06 -22.22,6.19 -6.35,4.12 -9.53,10.53 -9.53,19.2 0,4.03 0.74,7.47 2.23,10.32 1.48,2.86 3.49,5.4 6.03,7.62 2.54,2.23 5.61,4.29 9.21,6.19 3.59,1.91 7.51,3.81 11.74,5.72l23.5 10.79c7.83,3.6 14.87,7.41 21.11,11.43 6.24,4.02 11.54,8.42 15.87,13.18 4.34,4.76 7.62,10 9.85,15.71 2.22,5.72 3.33,12.18 3.33,19.37 0,9.31 -1.8,17.73 -5.4,25.24 -3.6,7.52 -8.52,13.87 -14.76,19.05 -6.24,5.19 -13.65,9.21 -22.22,12.07 -8.58,2.85 -17.84,4.28 -27.79,4.28 -17.56,0 -33.12,-4.07 -46.67,-12.22 -13.54,-8.15 -24.34,-19.21 -32.38,-33.18l23.81 -18.1c2.96,4.45 6.3,8.68 10,12.7 3.71,4.03 7.78,7.57 12.23,10.64 4.44,3.07 9.36,5.5 14.76,7.3 5.4,1.8 11.38,2.7 17.94,2.7 10.79,0 19.52,-2.59 26.19,-7.78 6.67,-5.18 10,-12.33 10,-21.43 0,-4.02 -0.74,-7.57 -2.22,-10.63 -1.48,-3.07 -3.6,-5.77 -6.35,-8.1 -2.75,-2.33 -5.98,-4.5 -9.68,-6.51 -3.71,-2.01 -7.89,-4.07 -12.55,-6.19l-23.17 -10.79c-6.78,-3.18 -13.13,-6.57 -19.05,-10.16 -5.93,-3.6 -11.11,-7.73 -15.56,-12.39 -4.44,-4.65 -7.94,-9.89 -10.48,-15.71 -2.54,-5.82 -3.81,-12.44 -3.81,-19.85 0,-8.67 1.75,-16.5 5.24,-23.49 3.5,-6.98 8.26,-12.96 14.29,-17.94 6.03,-4.97 13.02,-8.78 20.95,-11.43 7.94,-2.64 16.46,-3.97 25.56,-3.97zm177.48 0c15.45,0 29,3.55 40.64,10.64 11.64,7.09 20.64,16.03 26.99,26.83l-23.5 18.09c-5.5,-8.04 -11.96,-14.28 -19.36,-18.73 -7.41,-4.44 -15.67,-6.66 -24.77,-6.66 -8.46,0 -15.87,2.06 -22.22,6.19 -6.35,4.12 -9.53,10.53 -9.53,19.2 0,4.03 0.74,7.47 2.23,10.32 1.48,2.86 3.49,5.4 6.03,7.62 2.54,2.23 5.61,4.29 9.21,6.19 3.59,1.91 7.51,3.81 11.74,5.72l23.5 10.79c7.83,3.6 14.87,7.41 21.11,11.43 6.24,4.02 11.54,8.42 15.87,13.18 4.34,4.76 7.62,10 9.85,15.71 2.22,5.72 3.33,12.18 3.33,19.37 0,9.31 -1.8,17.73 -5.4,25.24 -3.6,7.52 -8.52,13.87 -14.76,19.05 -6.24,5.19 -13.65,9.21 -22.22,12.07 -8.58,2.85 -17.84,4.28 -27.79,4.28 -17.56,0 -33.12,-4.07 -46.67,-12.22 -13.54,-8.15 -24.34,-19.21 -32.38,-33.18l23.81 -18.1c2.96,4.45 6.3,8.68 10,12.7 3.71,4.03 7.78,7.57 12.23,10.64 4.44,3.07 9.36,5.5 14.76,7.3 5.4,1.8 11.38,2.7 17.94,2.7 10.79,0 19.52,-2.59 26.19,-7.78 6.67,-5.18 10,-12.33 10,-21.43 0,-4.02 -0.74,-7.57 -2.22,-10.63 -1.48,-3.07 -3.6,-5.77 -6.35,-8.1 -2.75,-2.33 -5.98,-4.5 -9.68,-6.51 -3.71,-2.01 -7.89,-4.07 -12.55,-6.19l-23.17 -10.79c-6.78,-3.18 -13.13,-6.57 -19.05,-10.16 -5.93,-3.6 -11.11,-7.73 -15.56,-12.39 -4.44,-4.65 -7.94,-9.89 -10.48,-15.71 -2.54,-5.82 -3.81,-12.44 -3.81,-19.85 0,-8.67 1.75,-16.5 5.24,-23.49 3.5,-6.98 8.26,-12.96 14.29,-17.94 6.03,-4.97 13.02,-8.78 20.95,-11.43 7.94,-2.64 16.46,-3.97 25.56,-3.97zm193.04 62.23l-34.92 86.99 69.53 0 -34.61 -86.99zm46.99 115.89l-94.3 0 -14.92 34.92 -35.88 0 92.39 -213.04 11.43 0 92.39 213.04 -36.19 0 -14.92 -34.92zm182.24 -178.12c18.62,0 35.24,3.81 49.84,11.43 14.61,7.62 26.89,18.42 36.83,32.39l-24.44 20c-7.41,-10.37 -16.25,-18.47 -26.51,-24.29 -10.27,-5.82 -22.28,-8.73 -36.04,-8.73 -11.22,0 -21.43,1.96 -30.64,5.87 -9.2,3.92 -17.14,9.32 -23.81,16.2 -6.67,6.88 -11.8,15.02 -15.4,24.44 -3.59,9.42 -5.39,19.63 -5.39,30.64 0,11.22 1.85,21.64 5.55,31.27 3.71,9.63 9,17.94 15.88,24.93 6.88,6.98 15.02,12.43 24.44,16.35 9.42,3.91 19.85,5.87 31.28,5.87 14.18,0 26.56,-2.91 37.14,-8.73 10.59,-5.82 19.05,-13.49 25.4,-23.02l0 -22.54 -64.45 0 0 -29.84 98.11 0 0 59.05c-4.45,8.25 -10.06,15.77 -16.83,22.54 -6.77,6.77 -14.34,12.59 -22.7,17.46 -8.36,4.87 -17.46,8.63 -27.31,11.27 -9.84,2.65 -20.16,3.97 -30.95,3.97 -15.66,0 -30.22,-2.75 -43.66,-8.25 -13.44,-5.51 -25.08,-13.13 -34.92,-22.86 -9.84,-9.74 -17.62,-21.22 -23.34,-34.45 -5.71,-13.23 -8.57,-27.46 -8.57,-42.7 0,-15.24 2.86,-29.48 8.57,-42.7 5.72,-13.23 13.55,-24.72 23.5,-34.45 9.95,-9.74 21.64,-17.36 35.08,-22.86 13.44,-5.5 27.89,-8.26 43.34,-8.26zm276.85 33.66l-104.13 0 0 53.65 78.42 0 0 29.21 -78.42 0 0 66.36 107.94 0 0 30.16 -141.6 0 0 -209.54 137.79 0 0 30.16zm188.59 152.71c7.2,0 13.81,-1.43 19.85,-4.29 6.03,-2.85 11.9,-7.03 17.62,-12.54l-42.23 -51.11c-8.47,6.56 -15.4,12.64 -20.8,18.25 -5.39,5.61 -8.09,12.44 -8.09,20.48 0,8.68 3.17,15.72 9.52,21.11 6.35,5.4 14.4,8.1 24.13,8.1zm6.03 -157.16c-6.13,0 -10.74,1.75 -13.81,5.24 -3.07,3.49 -4.6,7.99 -4.6,13.5 0,5.71 1.38,10.95 4.13,15.71 2.75,4.76 6.24,9.68 10.47,14.76 6.78,-5.29 12.07,-10.31 15.88,-15.08 3.81,-4.76 5.71,-10.21 5.71,-16.35 0,-5.08 -1.42,-9.31 -4.28,-12.7 -2.86,-3.38 -7.36,-5.08 -13.5,-5.08zm108.27 90.81c-6.14,9.1 -12.07,17.99 -17.78,26.66 -5.72,8.68 -11.64,16.73 -17.78,24.13l34.61 42.23 -39.69 0 -16.19 -19.68c-8.26,7.19 -17.15,12.85 -26.67,16.98 -9.53,4.13 -20.32,6.19 -32.39,6.19 -9.52,0 -18.3,-1.32 -26.35,-3.97 -8.04,-2.64 -15.02,-6.45 -20.95,-11.43 -5.93,-4.97 -10.58,-10.9 -13.97,-17.78 -3.39,-6.87 -5.08,-14.55 -5.08,-23.01 0,-6.99 1.16,-13.39 3.49,-19.21 2.33,-5.82 5.51,-11.27 9.53,-16.35 4.02,-5.08 8.73,-9.95 14.12,-14.61 5.4,-4.65 11.28,-9.42 17.63,-14.28 -6.14,-8.05 -11.06,-15.83 -14.77,-23.34 -3.7,-7.51 -5.55,-15.72 -5.55,-24.6 0,-6.99 1.11,-13.39 3.33,-19.21 2.22,-5.82 5.5,-10.85 9.84,-15.08 4.34,-4.24 9.58,-7.57 15.72,-10 6.14,-2.44 13.01,-3.66 20.63,-3.66 7.41,0 14.13,1.17 20.17,3.5 6.03,2.32 11.16,5.45 15.39,9.36 4.24,3.92 7.52,8.57 9.85,13.97 2.32,5.4 3.49,11.27 3.49,17.62 0,11.01 -3.23,20.9 -9.69,29.69 -6.45,8.78 -14.97,17.3 -25.55,25.56l38.1 46.03c4.65,-6.35 9.41,-13.23 14.28,-20.63 4.87,-7.41 10.06,-15.24 15.56,-23.5l26.67 18.42zm187 -120.02c15.45,0 29,3.55 40.64,10.64 11.64,7.09 20.64,16.03 26.99,26.83l-23.5 18.09c-5.5,-8.04 -11.96,-14.28 -19.36,-18.73 -7.41,-4.44 -15.67,-6.66 -24.77,-6.66 -8.46,0 -15.87,2.06 -22.22,6.19 -6.35,4.12 -9.53,10.53 -9.53,19.2 0,4.03 0.74,7.47 2.23,10.32 1.48,2.86 3.49,5.4 6.03,7.62 2.54,2.23 5.61,4.29 9.21,6.19 3.59,1.91 7.51,3.81 11.74,5.72l23.5 10.79c7.83,3.6 14.87,7.41 21.11,11.43 6.24,4.02 11.54,8.42 15.87,13.18 4.34,4.76 7.62,10 9.85,15.71 2.22,5.72 3.33,12.18 3.33,19.37 0,9.31 -1.8,17.73 -5.4,25.24 -3.6,7.52 -8.52,13.87 -14.76,19.05 -6.24,5.19 -13.65,9.21 -22.22,12.07 -8.58,2.85 -17.84,4.28 -27.79,4.28 -17.56,0 -33.12,-4.07 -46.67,-12.22 -13.54,-8.15 -24.34,-19.21 -32.38,-33.18l23.81 -18.1c2.96,4.45 6.3,8.68 10,12.7 3.71,4.03 7.78,7.57 12.23,10.64 4.44,3.07 9.36,5.5 14.76,7.3 5.4,1.8 11.38,2.7 17.94,2.7 10.79,0 19.52,-2.59 26.19,-7.78 6.67,-5.18 10,-12.33 10,-21.43 0,-4.02 -0.74,-7.57 -2.22,-10.63 -1.48,-3.07 -3.6,-5.77 -6.35,-8.1 -2.75,-2.33 -5.98,-4.5 -9.68,-6.51 -3.71,-2.01 -7.89,-4.07 -12.55,-6.19l-23.17 -10.79c-6.78,-3.18 -13.13,-6.57 -19.05,-10.16 -5.93,-3.6 -11.11,-7.73 -15.56,-12.39 -4.44,-4.65 -7.94,-9.89 -10.48,-15.71 -2.54,-5.82 -3.81,-12.44 -3.81,-19.85 0,-8.67 1.75,-16.5 5.24,-23.49 3.5,-6.98 8.26,-12.96 14.29,-17.94 6.03,-4.97 13.02,-8.78 20.95,-11.43 7.94,-2.64 16.46,-3.97 25.56,-3.97zm147.96 33.34l0 68.9 42.22 0c12.07,0 21.27,-3.18 27.62,-9.53 6.35,-6.35 9.53,-14.6 9.53,-24.76 0,-10.16 -3.18,-18.47 -9.53,-24.93 -6.35,-6.45 -15.55,-9.68 -27.62,-9.68l-42.22 0zm42.86 -29.84c10.58,0 20.26,1.53 29.05,4.6 8.78,3.07 16.29,7.46 22.54,13.18 6.24,5.71 11.06,12.48 14.44,20.32 3.39,7.83 5.08,16.5 5.08,26.03 0,9.52 -1.69,18.2 -5.08,26.03 -3.38,7.84 -8.2,14.61 -14.44,20.32 -6.25,5.72 -13.76,10.16 -22.54,13.34 -8.79,3.17 -18.47,4.76 -29.05,4.76l-42.86 0 0 80.96 -33.66 0 0 -209.54 76.52 0zm187.32 58.73l-34.92 86.99 69.53 0 -34.61 -86.99zm46.99 115.89l-94.3 0 -14.92 34.92 -35.88 0 92.39 -213.04 11.43 0 92.39 213.04 -36.19 0 -14.92 -34.92z"/>
 </g>
</svg>
